# xmcd
#
# Track frame offsets:
#	150
#	24448
#	38743
#	51698
#	74551
#	92747
#	115200
#	126423
#	140575
#	169926
#	180906
#	206437
#	228367
#	234069
#
# Disc length: 3733 seconds
#
# Revision: 2
# Processed by: cddbd v1.5.1PL2 Copyright (c) Steve Scherf et al.
# Submitted via: freedbtool 1.11
#
DISCID=c10e930e
DTITLE=Stevie Ray Vaughan - Stevie Ray Vaughan
DYEAR=1900
DGENRE=
TTITLE0=Texas Flood
TTITLE1=Testify Unplugged Version
TTITLE2=12 String Guitar Solo
TTITLE3=Ask Me No Questions
TTITLE4=Cold Shot
TTITLE5=Lenny
TTITLE6=Life By the Drop (unplugged)
TTITLE7=Look At Little Sister
TTITLE8=Traffic Jam (SRV&Carlos Santana)
TTITLE9=The House is Rockin'
TTITLE10=13-Manic Depression
TTITLE11=Red House (SRV&Jonny Lang)
TTITLE12=Guitar Duel (SRV&Steve Vai)
TTITLE13=Duel from Crossroads
EXTD=
EXTT0=
EXTT1=
EXTT2=
EXTT3=
EXTT4=
EXTT5=
EXTT6=
EXTT7=
EXTT8=
EXTT9=
EXTT10=
EXTT11=
EXTT12=
EXTT13=
PLAYORDER=
